<svg viewBox="0 0 800 500" xmlns="http://www.w3.org/2000/svg" role="img" aria-label="事務の時間が原資に変わるイメージ">
  <rect width="800" height="500" rx="18" fill="#f4f8fd"/>
  <rect x="90" y="150" width="120" height="150" rx="8" fill="#ffffff" stroke="#0a63d6" stroke-width="3"/>
  <line x1="115" y1="185" x2="185" y2="185" stroke="#7fb0ee" stroke-width="6" stroke-linecap="round"/>
  <line x1="115" y1="215" x2="185" y2="215" stroke="#7fb0ee" stroke-width="6" stroke-linecap="round"/>
  <line x1="115" y1="245" x2="160" y2="245" stroke="#7fb0ee" stroke-width="6" stroke-linecap="round"/>
  <circle cx="150" cy="120" r="30" fill="none" stroke="#0a63d6" stroke-width="4"/>
  <path d="M150 120 L150 100 M150 120 L165 130" stroke="#0a63d6" stroke-width="4" stroke-linecap="round"/>
  <path d="M215 225 Q380 225 470 300" fill="none" stroke="#7fb0ee" stroke-width="16" stroke-linecap="round" opacity=".55"/>
  <g fill="#0a63d6" stroke="#0846a0" stroke-width="2">
    <circle cx="300" cy="222" r="16"/><circle cx="370" cy="238" r="16"/><circle cx="435" cy="272" r="16"/>
  </g>
  <path d="M520 300 L660 300 L640 420 Q590 440 540 420 Z" fill="#0a63d6"/>
  <ellipse cx="590" cy="300" rx="70" ry="16" fill="#0846a0"/>
  <g fill="#ffffff">
    <circle cx="575" cy="350" r="14"/><circle cx="612" cy="365" r="14"/><circle cx="588" cy="385" r="14"/>
  </g>
</svg>
