<svg viewBox="0 0 800 500" xmlns="http://www.w3.org/2000/svg" role="img" aria-label="事務の時間が原資に変わるイメージ">
  <rect width="800" height="500" rx="18" fill="#eef2ea"/>
  <!-- paper/clock source -->
  <g>
    <rect x="90" y="150" width="120" height="150" rx="10" fill="#fdfbf7" stroke="#9db69a" stroke-width="2.5"/>
    <line x1="115" y1="185" x2="185" y2="185" stroke="#a7bfa2" stroke-width="6" stroke-linecap="round"/>
    <line x1="115" y1="215" x2="185" y2="215" stroke="#a7bfa2" stroke-width="6" stroke-linecap="round"/>
    <line x1="115" y1="245" x2="160" y2="245" stroke="#a7bfa2" stroke-width="6" stroke-linecap="round"/>
    <circle cx="150" cy="120" r="30" fill="none" stroke="#6f8b6e" stroke-width="4"/>
    <path d="M150 120 L150 100 M150 120 L165 130" stroke="#6f8b6e" stroke-width="4" stroke-linecap="round"/>
  </g>
  <!-- pipeline -->
  <path d="M215 225 Q380 225 470 300" fill="none" stroke="#cdd9c8" stroke-width="16" stroke-linecap="round"/>
  <!-- coins flowing -->
  <g fill="#d98c6a" stroke="#c06f4c" stroke-width="2">
    <circle cx="300" cy="222" r="16"/><circle cx="370" cy="238" r="16"/><circle cx="435" cy="272" r="16"/>
  </g>
  <!-- vessel -->
  <path d="M520 300 L660 300 L640 420 Q590 440 540 420 Z" fill="#6f8b6e"/>
  <ellipse cx="590" cy="300" rx="70" ry="16" fill="#4f6b52"/>
  <g fill="#f7e8dd" stroke="#c06f4c" stroke-width="2">
    <circle cx="575" cy="350" r="15"/><circle cx="612" cy="365" r="15"/><circle cx="588" cy="385" r="15"/>
  </g>
</svg>
