<svg viewBox="0 0 800 500" xmlns="http://www.w3.org/2000/svg" role="img" aria-label="地方から都市への時間軸">
  <rect width="800" height="500" rx="18" fill="#eef2ea"/>
  <circle cx="150" cy="120" r="42" fill="#e6c48c" opacity=".85"/>
  <!-- rolling hills left -->
  <path d="M0 360 Q140 300 280 350 T560 340 T800 350 L800 500 L0 500 Z" fill="#a7bfa2"/>
  <path d="M0 400 Q180 350 360 390 T800 390 L800 500 L0 500 Z" fill="#6f8b6e"/>
  <!-- small rural house -->
  <g fill="#4f6b52"><rect x="120" y="330" width="52" height="42" rx="4"/><path d="M112 330 L146 300 L180 330 Z"/></g>
  <!-- city buildings right -->
  <g fill="#c06f4c">
    <rect x="560" y="250" width="46" height="150" rx="4"/>
    <rect x="614" y="210" width="52" height="190" rx="4"/>
    <rect x="674" y="280" width="44" height="120" rx="4"/>
  </g>
  <g fill="#f7e8dd" opacity=".7">
    <rect x="622" y="230" width="10" height="12"/><rect x="640" y="230" width="10" height="12"/>
    <rect x="622" y="260" width="10" height="12"/><rect x="640" y="260" width="10" height="12"/>
  </g>
  <!-- flowing timeline -->
  <path d="M120 430 Q400 470 690 400" fill="none" stroke="#d98c6a" stroke-width="4" stroke-linecap="round"/>
  <circle cx="120" cy="430" r="7" fill="#4f6b52"/>
  <circle cx="690" cy="400" r="7" fill="#c06f4c"/>
</svg>
