<svg viewBox="0 0 720 560" xmlns="http://www.w3.org/2000/svg" role="img" aria-label="地域がつながり循環するイメージ">
  <rect width="720" height="560" rx="18" fill="#f4f8fd"/>
  <ellipse cx="360" cy="285" rx="238" ry="188" fill="none" stroke="#7fb0ee" stroke-width="2.5"/>
  <g fill="none" stroke="#0a63d6" stroke-width="3" stroke-linecap="round">
    <path d="M585 285 Q520 190 470 130"/><path d="M470 130 Q360 170 250 130"/>
    <path d="M250 130 Q195 195 135 285"/><path d="M135 285 Q195 375 250 440"/>
    <path d="M250 440 Q360 400 470 440"/><path d="M470 440 Q525 375 585 285"/>
  </g>
  <g fill="none" stroke="#7fb0ee" stroke-width="2" stroke-linecap="round">
    <path d="M470 130 Q360 285 470 440"/><path d="M250 130 Q360 285 250 440"/>
  </g>
  <g>
    <circle cx="585" cy="285" r="28" fill="#0a63d6"/><circle cx="585" cy="285" r="9" fill="#ffffff"/>
    <circle cx="470" cy="130" r="31" fill="#0846a0"/><circle cx="470" cy="130" r="10" fill="#ffffff"/>
    <circle cx="250" cy="130" r="28" fill="#0a63d6"/><circle cx="250" cy="130" r="9" fill="#ffffff"/>
    <circle cx="135" cy="285" r="31" fill="#0846a0"/><circle cx="135" cy="285" r="10" fill="#ffffff"/>
    <circle cx="250" cy="440" r="28" fill="#0a63d6"/><circle cx="250" cy="440" r="9" fill="#ffffff"/>
    <circle cx="470" cy="440" r="31" fill="#0846a0"/><circle cx="470" cy="440" r="10" fill="#ffffff"/>
  </g>
  <circle cx="360" cy="285" r="48" fill="#ffffff" stroke="#0a63d6" stroke-width="3"/>
  <circle cx="360" cy="285" r="18" fill="#0a63d6"/>
</svg>
