<svg viewBox="0 0 800 460" xmlns="http://www.w3.org/2000/svg" role="img" aria-label="4つの器を束ねる">
  <rect width="800" height="460" fill="#ffffff"/>
  <rect x="120" y="150" width="86" height="170" rx="6" fill="#dbe9fb"/>
  <rect x="230" y="110" width="86" height="210" rx="6" fill="#0a63d6"/>
  <rect x="340" y="180" width="86" height="140" rx="6" fill="#dbe9fb"/>
  <rect x="450" y="140" width="86" height="180" rx="6" fill="#0a63d6"/>
  <g fill="none" stroke="#0a63d6" stroke-width="5" stroke-linecap="round">
    <path d="M163 320 Q330 380 610 340"/><path d="M273 320 Q400 380 610 345"/>
    <path d="M383 320 Q470 380 610 350"/><path d="M493 320 Q540 380 610 355"/>
  </g>
  <path d="M540 330 L680 330 L658 440 Q610 460 562 440 Z" fill="#0846a0"/>
  <ellipse cx="610" cy="330" rx="70" ry="16" fill="#0f1720"/>
</svg>
