<svg viewBox="0 0 800 500" xmlns="http://www.w3.org/2000/svg" role="img" aria-label="人口と年齢構成のイメージ">
  <rect width="800" height="500" rx="18" fill="#f4f8fd"/>
  <rect x="90" y="110" width="620" height="70" rx="12" fill="#7fb0ee"/>
  <rect x="90" y="200" width="470" height="70" rx="12" fill="#0a63d6"/>
  <rect x="90" y="290" width="300" height="70" rx="12" fill="#0846a0"/>
  <g font-family="'Zen Kaku Gothic New',sans-serif" font-size="20">
    <text x="105" y="152" fill="#0f1720">年少</text>
    <text x="105" y="242" fill="#ffffff">生産年齢</text>
    <text x="105" y="332" fill="#ffffff">高齢</text>
  </g>
  <g>
    <g transform="translate(150,410)" fill="#0a63d6"><circle r="13"/><rect x="-15" y="16" width="30" height="34" rx="12"/></g>
    <g transform="translate(230,410)" fill="#0846a0"><circle r="13"/><rect x="-15" y="16" width="30" height="34" rx="12"/></g>
    <g transform="translate(310,410)" fill="#0a63d6"><circle r="13"/><rect x="-15" y="16" width="30" height="34" rx="12"/></g>
    <g transform="translate(390,410)" fill="#0846a0"><circle r="13"/><rect x="-15" y="16" width="30" height="34" rx="12"/></g>
    <g transform="translate(470,410)" fill="#0a63d6"><circle r="13"/><rect x="-15" y="16" width="30" height="34" rx="12"/></g>
    <g transform="translate(550,410)" fill="#0846a0"><circle r="13"/><rect x="-15" y="16" width="30" height="34" rx="12"/></g>
    <g transform="translate(630,410)" fill="#0846a0"><circle r="13"/><rect x="-15" y="16" width="30" height="34" rx="12"/></g>
  </g>
</svg>
